<svg width="1024" height="1024" viewBox="0 0 1024 1024" fill="none" xmlns="http://www.w3.org/2000/svg">
<g clip-path="url(#clip0_13_2)">
<rect width="1024" height="1024" fill="black"/>
<path d="M512 905C457.635 905 406.545 894.684 358.73 874.051C310.915 853.419 269.323 825.418 233.953 790.048C198.583 754.678 170.581 713.085 149.949 665.27C129.316 617.455 119 566.365 119 512C119 457.635 129.316 406.545 149.949 358.73C170.581 310.915 198.583 269.323 233.953 233.953C269.323 198.583 310.915 170.581 358.73 149.949C406.545 129.316 457.635 119 512 119C566.365 119 617.455 129.316 665.27 149.949C713.085 170.581 754.678 198.583 790.048 233.953C825.418 269.323 853.419 310.915 874.051 358.73C894.684 406.545 905 457.635 905 512C905 566.365 894.684 617.455 874.051 665.27C853.419 713.085 825.418 754.678 790.048 790.048C754.678 825.418 713.085 853.419 665.27 874.051C617.455 894.684 566.365 905 512 905ZM512 826.4C599.77 826.4 674.113 795.943 735.028 735.028C795.943 674.113 826.4 599.77 826.4 512C826.4 507.415 826.236 502.666 825.909 497.754C825.581 492.841 825.418 488.748 825.418 485.473C822.143 504.468 813.3 520.188 798.89 532.633C784.48 545.078 767.45 551.3 747.8 551.3H669.2C647.585 551.3 629.081 543.604 613.689 528.211C598.296 512.819 590.6 494.315 590.6 472.7V433.4H433.4V354.8C433.4 333.185 441.096 314.681 456.489 299.289C471.881 283.896 490.385 276.2 512 276.2H551.3C551.3 261.135 555.394 247.871 563.581 236.409C571.769 224.946 581.758 215.613 593.548 208.408C580.448 205.133 567.184 202.513 553.756 200.548C540.329 198.583 526.41 197.6 512 197.6C424.23 197.6 349.888 228.058 288.973 288.973C228.058 349.888 197.6 424.23 197.6 512H394.1C437.33 512 474.338 527.393 505.123 558.178C535.908 588.963 551.3 625.97 551.3 669.2V708.5H433.4V816.575C446.5 819.85 459.436 822.306 472.209 823.944C484.981 825.581 498.245 826.4 512 826.4Z" fill="#306230"/>
</g>
<defs>
<clipPath id="clip0_13_2">
<rect width="1024" height="1024" fill="white"/>
</clipPath>
</defs>
</svg>
