<svg width="24" height="24" viewBox="0 0 24 24" fill="none" xmlns="http://www.w3.org/2000/svg">
<path d="M12 24C10.34 24 8.78 23.685 7.32 23.055C5.86 22.425 4.59 21.57 3.51 20.49C2.43 19.41 1.575 18.14 0.945 16.68C0.315 15.22 0 13.66 0 12C0 10.34 0.315 8.78 0.945 7.32C1.575 5.86 2.43 4.59 3.51 3.51C4.59 2.43 5.86 1.575 7.32 0.945C8.78 0.315 10.34 0 12 0C13.66 0 15.22 0.315 16.68 0.945C18.14 1.575 19.41 2.43 20.49 3.51C21.57 4.59 22.425 5.86 23.055 7.32C23.685 8.78 24 10.34 24 12C24 13.66 23.685 15.22 23.055 16.68C22.425 18.14 21.57 19.41 20.49 20.49C19.41 21.57 18.14 22.425 16.68 23.055C15.22 23.685 13.66 24 12 24ZM12 21.6C14.68 21.6 16.95 20.67 18.81 18.81C20.67 16.95 21.6 14.68 21.6 12C21.6 11.86 21.595 11.715 21.585 11.565C21.575 11.415 21.57 11.29 21.57 11.19C21.47 11.77 21.2 12.25 20.76 12.63C20.32 13.01 19.8 13.2 19.2 13.2H16.8C16.14 13.2 15.575 12.965 15.105 12.495C14.635 12.025 14.4 11.46 14.4 10.8V9.6H9.6V7.2C9.6 6.54 9.835 5.975 10.305 5.505C10.775 5.035 11.34 4.8 12 4.8H13.2C13.2 4.34 13.325 3.935 13.575 3.585C13.825 3.235 14.13 2.95 14.49 2.73C14.09 2.63 13.685 2.55 13.275 2.49C12.865 2.43 12.44 2.4 12 2.4C9.32 2.4 7.05 3.33 5.19 5.19C3.33 7.05 2.4 9.32 2.4 12H8.4C9.72 12 10.85 12.47 11.79 13.41C12.73 14.35 13.2 15.48 13.2 16.8V18H9.6V21.3C10 21.4 10.395 21.475 10.785 21.525C11.175 21.575 11.58 21.6 12 21.6Z" fill="white"/>
</svg>
