<svg width="1024" height="1024" viewBox="0 0 1024 1024" fill="none" xmlns="http://www.w3.org/2000/svg">
<g clip-path="url(#clip0_2002_2)">
<rect width="1024" height="1024" fill="url(#paint0_linear_2002_2)"/>
<g filter="url(#filter0_dd_2002_2)">
<circle cx="650" cy="420" r="200" fill="url(#paint1_linear_2002_2)"/>
<circle cx="650" cy="420" r="202.5" stroke="#FFF4D8" stroke-width="5"/>
</g>
<g filter="url(#filter1_ddii_2002_2)">
<mask id="path-3-outside-1_2002_2" maskUnits="userSpaceOnUse" x="170" y="330" width="621" height="475" fill="black">
<rect fill="white" x="170" y="330" width="621" height="475"/>
<path d="M467 335C551.121 335 620.969 396.1 634.592 476.342C719.125 481.797 786 552.088 786 638C786 724.112 718.813 794.528 634 799.693V800H327V799.867C242.477 796.458 175 726.86 175 641.5C175 566.188 227.527 503.145 297.943 487.005C306.931 401.576 379.19 335 467 335Z"/>
</mask>
<path d="M467 335C551.121 335 620.969 396.1 634.592 476.342C719.125 481.797 786 552.088 786 638C786 724.112 718.813 794.528 634 799.693V800H327V799.867C242.477 796.458 175 726.86 175 641.5C175 566.188 227.527 503.145 297.943 487.005C306.931 401.576 379.19 335 467 335Z" fill="url(#paint2_linear_2002_2)" fill-opacity="0.8" shape-rendering="crispEdges"/>
<path d="M634.592 476.342L629.662 477.179L630.324 481.077L634.27 481.331L634.592 476.342ZM634 799.693L633.696 794.703L629 794.989V799.693H634ZM634 800V805H639V800H634ZM327 800H322V805H327V800ZM327 799.867H332V795.065L327.202 794.871L327 799.867ZM297.943 487.005L299.06 491.879L302.542 491.08L302.916 487.528L297.943 487.005ZM467 335V340C548.642 340 616.441 399.301 629.662 477.179L634.592 476.342L639.521 475.505C625.497 392.9 553.601 330 467 330V335ZM634.592 476.342L634.27 481.331C716.189 486.618 781 554.742 781 638H786H791C791 549.435 722.061 476.977 634.914 471.352L634.592 476.342ZM786 638H781C781 721.452 715.886 789.697 633.696 794.703L634 799.693L634.304 804.684C721.739 799.359 791 726.772 791 638H786ZM634 799.693H629V800H634H639V799.693H634ZM634 800V795H327V800V805H634V800ZM327 800H332V799.867H327H322V800H327ZM327 799.867L327.202 794.871C245.348 791.57 180 724.166 180 641.5H175H170C170 729.554 239.605 801.346 326.798 804.863L327 799.867ZM175 641.5H180C180 568.57 230.866 507.509 299.06 491.879L297.943 487.005L296.826 482.131C224.188 498.78 170 563.806 170 641.5H175ZM297.943 487.005L302.916 487.528C311.639 404.617 381.776 340 467 340V335V330C376.604 330 302.224 398.535 292.971 486.482L297.943 487.005Z" fill="white" mask="url(#path-3-outside-1_2002_2)"/>
</g>
</g>
<defs>
<filter id="filter0_dd_2002_2" x="245" y="15" width="810" height="810" filterUnits="userSpaceOnUse" color-interpolation-filters="sRGB">
<feFlood flood-opacity="0" result="BackgroundImageFix"/>
<feColorMatrix in="SourceAlpha" type="matrix" values="0 0 0 0 0 0 0 0 0 0 0 0 0 0 0 0 0 0 127 0" result="hardAlpha"/>
<feOffset/>
<feGaussianBlur stdDeviation="100"/>
<feColorMatrix type="matrix" values="0 0 0 0 1 0 0 0 0 0.583333 0 0 0 0 0 0 0 0 1 0"/>
<feBlend mode="normal" in2="BackgroundImageFix" result="effect1_dropShadow_2002_2"/>
<feColorMatrix in="SourceAlpha" type="matrix" values="0 0 0 0 0 0 0 0 0 0 0 0 0 0 0 0 0 0 127 0" result="hardAlpha"/>
<feOffset/>
<feGaussianBlur stdDeviation="50"/>
<feComposite in2="hardAlpha" operator="out"/>
<feColorMatrix type="matrix" values="0 0 0 0 0.996078 0 0 0 0 0.796078 0 0 0 0 0.286275 0 0 0 1 0"/>
<feBlend mode="normal" in2="effect1_dropShadow_2002_2" result="effect2_dropShadow_2002_2"/>
<feBlend mode="normal" in="SourceGraphic" in2="effect2_dropShadow_2002_2" result="shape"/>
</filter>
<filter id="filter1_ddii_2002_2" x="-30" y="130" width="1021" height="875" filterUnits="userSpaceOnUse" color-interpolation-filters="sRGB">
<feFlood flood-opacity="0" result="BackgroundImageFix"/>
<feColorMatrix in="SourceAlpha" type="matrix" values="0 0 0 0 0 0 0 0 0 0 0 0 0 0 0 0 0 0 127 0" result="hardAlpha"/>
<feOffset/>
<feGaussianBlur stdDeviation="100"/>
<feColorMatrix type="matrix" values="0 0 0 0 0.941176 0 0 0 0 0.941176 0 0 0 0 0.941176 0 0 0 0.38 0"/>
<feBlend mode="normal" in2="BackgroundImageFix" result="effect1_dropShadow_2002_2"/>
<feColorMatrix in="SourceAlpha" type="matrix" values="0 0 0 0 0 0 0 0 0 0 0 0 0 0 0 0 0 0 127 0" result="hardAlpha"/>
<feOffset/>
<feGaussianBlur stdDeviation="50"/>
<feComposite in2="hardAlpha" operator="out"/>
<feColorMatrix type="matrix" values="0 0 0 0 1 0 0 0 0 1 0 0 0 0 1 0 0 0 0.38 0"/>
<feBlend mode="normal" in2="effect1_dropShadow_2002_2" result="effect2_dropShadow_2002_2"/>
<feBlend mode="normal" in="SourceGraphic" in2="effect2_dropShadow_2002_2" result="shape"/>
<feColorMatrix in="SourceAlpha" type="matrix" values="0 0 0 0 0 0 0 0 0 0 0 0 0 0 0 0 0 0 127 0" result="hardAlpha"/>
<feOffset/>
<feGaussianBlur stdDeviation="100"/>
<feComposite in2="hardAlpha" operator="arithmetic" k2="-1" k3="1"/>
<feColorMatrix type="matrix" values="0 0 0 0 0.941176 0 0 0 0 0.941176 0 0 0 0 0.941176 0 0 0 1 0"/>
<feBlend mode="normal" in2="shape" result="effect3_innerShadow_2002_2"/>
<feColorMatrix in="SourceAlpha" type="matrix" values="0 0 0 0 0 0 0 0 0 0 0 0 0 0 0 0 0 0 127 0" result="hardAlpha"/>
<feOffset/>
<feGaussianBlur stdDeviation="50"/>
<feComposite in2="hardAlpha" operator="arithmetic" k2="-1" k3="1"/>
<feColorMatrix type="matrix" values="0 0 0 0 1 0 0 0 0 1 0 0 0 0 1 0 0 0 0.38 0"/>
<feBlend mode="normal" in2="effect3_innerShadow_2002_2" result="effect4_innerShadow_2002_2"/>
</filter>
<linearGradient id="paint0_linear_2002_2" x1="0" y1="0" x2="1024" y2="1024" gradientUnits="userSpaceOnUse">
<stop stop-color="#77C6EE"/>
<stop offset="1" stop-color="#4A5391"/>
</linearGradient>
<linearGradient id="paint1_linear_2002_2" x1="450" y1="220" x2="850" y2="620" gradientUnits="userSpaceOnUse">
<stop offset="0.110577" stop-color="#FEFDF7"/>
<stop offset="0.336538" stop-color="#F7EAA1"/>
<stop offset="0.75" stop-color="#FF9500"/>
<stop offset="1" stop-color="#C27100"/>
</linearGradient>
<linearGradient id="paint2_linear_2002_2" x1="481" y1="800" x2="462" y2="439.5" gradientUnits="userSpaceOnUse">
<stop stop-color="white"/>
<stop offset="0.894231" stop-color="white" stop-opacity="0.2"/>
</linearGradient>
<clipPath id="clip0_2002_2">
<rect width="1024" height="1024" fill="white"/>
</clipPath>
</defs>
</svg>
