<svg width="1024" height="1024" viewBox="0 0 1024 1024" fill="none" xmlns="http://www.w3.org/2000/svg">
<rect width="1024" height="1024" fill="url(#paint0_linear_7_2)"/>
<g filter="url(#filter0_d_7_2)">
<path d="M714.969 303.581L169.963 389.457C162.999 390.555 158.477 397.391 160.191 404.229L264.219 819.209C265.745 825.296 271.704 829.18 277.889 828.118L853.217 729.376C860.464 728.132 864.899 720.721 862.568 713.746L728.218 311.632C726.361 306.072 720.759 302.668 714.969 303.581Z" fill="url(#paint1_linear_7_2)"/>
<path d="M714.969 303.581L169.963 389.457C162.999 390.555 158.477 397.391 160.191 404.229L264.219 819.209C265.745 825.296 271.704 829.18 277.889 828.118L853.217 729.376C860.464 728.132 864.899 720.721 862.568 713.746L728.218 311.632C726.361 306.072 720.759 302.668 714.969 303.581Z" stroke="url(#paint2_linear_7_2)" stroke-width="100"/>
</g>
<path d="M504 453C581.325 453 651.087 467.292 701.331 490.187C752.022 513.285 781 544.176 781 576.5C781 608.824 752.022 639.715 701.331 662.813C651.087 685.708 581.325 700 504 700C426.675 700 356.913 685.708 306.669 662.813C255.978 639.715 227 608.824 227 576.5C227 544.176 255.978 513.285 306.669 490.187C356.913 467.292 426.675 453 504 453Z" stroke="white" stroke-opacity="0.7" stroke-width="10"/>
<g filter="url(#filter1_d_7_2)">
<path d="M507 198C613.912 198 701.613 232.671 710.294 276.797C710.317 276.915 710.42 277 710.541 277C710.657 277 710.758 277.08 710.786 277.193L780.921 567.672C780.961 567.839 780.834 568 780.662 568C780.499 568 780.375 568.145 780.398 568.306C780.796 571.015 781 573.747 781 576.5C781 644.707 656.983 700 504 700C351.017 700 227 644.707 227 576.5C227 573.745 227.204 571.012 227.602 568.303C227.626 568.143 227.502 568 227.341 568C227.169 568 227.043 567.837 227.087 567.67L303.381 278.707C309.867 233.676 398.55 198 507 198Z" fill="url(#paint3_linear_7_2)" shape-rendering="crispEdges"/>
<path d="M507 198C613.912 198 701.613 232.671 710.294 276.797C710.317 276.915 710.42 277 710.541 277C710.657 277 710.758 277.08 710.786 277.193L780.921 567.672C780.961 567.839 780.834 568 780.662 568C780.499 568 780.375 568.145 780.398 568.306C780.796 571.015 781 573.747 781 576.5C781 644.707 656.983 700 504 700C351.017 700 227 644.707 227 576.5C227 573.745 227.204 571.012 227.602 568.303C227.626 568.143 227.502 568 227.341 568C227.169 568 227.043 567.837 227.087 567.67L303.381 278.707C309.867 233.676 398.55 198 507 198Z" fill="url(#paint4_linear_7_2)" fill-opacity="0.4" shape-rendering="crispEdges"/>
<path d="M507 198C613.912 198 701.613 232.671 710.294 276.797C710.317 276.915 710.42 277 710.541 277C710.657 277 710.758 277.08 710.786 277.193L780.921 567.672C780.961 567.839 780.834 568 780.662 568C780.499 568 780.375 568.145 780.398 568.306C780.796 571.015 781 573.747 781 576.5C781 644.707 656.983 700 504 700C351.017 700 227 644.707 227 576.5C227 573.745 227.204 571.012 227.602 568.303C227.626 568.143 227.502 568 227.341 568C227.169 568 227.043 567.837 227.087 567.67L303.381 278.707C309.867 233.676 398.55 198 507 198Z" fill="url(#paint5_linear_7_2)" fill-opacity="0.4" shape-rendering="crispEdges"/>
<path d="M303.381 278.707L308.215 279.983L308.289 279.705L308.33 279.42L303.381 278.707ZM227.087 567.67L222.253 566.394L227.087 567.67ZM780.398 568.306L785.345 567.579L780.398 568.306ZM227.602 568.303L222.655 567.575L227.602 568.303ZM780.921 567.672L785.781 566.498L780.921 567.672ZM710.786 277.193L715.646 276.019L710.786 277.193ZM710.294 276.797L705.388 277.762L710.294 276.797ZM507 198V203C559.97 203 607.986 211.596 643.667 225.51C661.512 232.468 676.096 240.687 686.661 249.677C697.243 258.681 703.507 268.2 705.388 277.762L710.294 276.797L715.2 275.832C712.741 263.331 704.786 251.969 693.142 242.061C681.481 232.14 665.829 223.418 647.3 216.193C610.232 201.739 560.942 193 507 193V198ZM710.786 277.193L705.925 278.366L776.06 568.845L780.921 567.672L785.781 566.498L715.646 276.019L710.786 277.193ZM780.398 568.306L775.452 569.033C775.815 571.505 776 573.994 776 576.5H781H786C786 573.499 785.778 570.524 785.345 567.579L780.398 568.306ZM781 576.5H776C776 591.93 769.007 607.003 755.605 621.131C742.178 635.284 722.513 648.257 697.833 659.261C648.483 681.263 579.957 695 504 695V700V705C581.025 705 651 691.09 701.905 668.394C727.351 657.049 748.252 643.41 762.859 628.013C777.491 612.59 786 595.173 786 576.5H781ZM504 700V695C428.043 695 359.517 681.263 310.167 659.261C285.487 648.257 265.822 635.284 252.395 621.131C238.993 607.003 232 591.93 232 576.5H227H222C222 595.173 230.509 612.59 245.141 628.013C259.748 643.41 280.649 657.049 306.095 668.394C357 691.09 426.975 705 504 705V700ZM227 576.5H232C232 573.993 232.185 571.503 232.549 569.03L227.602 568.303L222.655 567.575C222.222 570.522 222 573.498 222 576.5H227ZM227.087 567.67L231.921 568.946L308.215 279.983L303.381 278.707L298.547 277.431L222.253 566.394L227.087 567.67ZM303.381 278.707L308.33 279.42C309.729 269.708 315.63 260.028 325.998 250.841C336.356 241.663 350.883 233.247 368.804 226.112C404.633 211.846 453.265 203 507 203V198V193C452.285 193 402.35 201.992 365.104 216.821C346.487 224.234 330.849 233.181 319.366 243.357C307.892 253.524 300.276 265.19 298.432 277.994L303.381 278.707ZM227.341 568V563C230.449 563 232.715 565.942 231.921 568.946L227.087 567.67L222.253 566.394C221.371 569.732 223.889 573 227.341 573V568ZM780.662 568V563C777.43 563 774.987 565.872 775.452 569.033L780.398 568.306L785.345 567.579C785.762 570.418 783.569 573 780.662 573V568ZM227.602 568.303L232.549 569.03C233.013 565.87 230.572 563 227.341 563V568V573C224.433 573 222.238 570.416 222.655 567.575L227.602 568.303ZM780.921 567.672L776.06 568.845C775.341 565.867 777.598 563 780.662 563V568V573C784.071 573 786.581 569.811 785.781 566.498L780.921 567.672ZM710.541 277V282C708.348 282 706.44 280.498 705.925 278.366L710.786 277.193L715.646 276.019C715.077 273.661 712.967 272 710.541 272V277ZM710.294 276.797L705.388 277.762C705.874 280.233 708.039 282 710.541 282V277V272C712.802 272 714.76 273.598 715.2 275.832L710.294 276.797Z" fill="white" fill-opacity="0.38"/>
</g>
<g filter="url(#filter2_d_7_2)">
<mask id="path-5-inside-1_7_2" fill="white">
<path d="M505.143 193C559.066 193 608.204 200.571 644.543 213.019C662.696 219.236 677.887 226.75 688.901 235.324C699.279 243.404 706.442 252.83 708.215 263.407C708.465 263.793 708.669 264.214 708.814 264.666L708.878 264.879L755.739 434.379C756.015 435.375 755.982 436.368 755.71 437.271C755.901 438.669 756 440.08 756 441.5C756 454.733 747.703 466.486 734.704 476.418C721.63 486.407 703.026 495.188 680.486 502.473C635.35 517.06 573.306 526 505 526C436.694 526 374.651 517.059 329.515 502.473C306.974 495.188 288.37 486.407 275.296 476.418C262.297 466.486 254 454.733 254 441.5C254 435.479 255.738 429.71 258.872 424.293C259.99 422.361 260.814 420.627 261.256 418.919L301.071 265.089L301.134 264.865C301.347 264.163 301.695 263.529 302.144 262.985C304.043 252.534 311.205 243.217 321.519 235.221C332.551 226.667 347.743 219.172 365.889 212.969C402.213 200.551 451.291 193 505.143 193ZM506.5 226C454.309 226 412 239.431 412 256C412 272.569 454.309 286 506.5 286C558.691 286 601 272.569 601 256C601 239.431 558.691 226 506.5 226Z"/>
</mask>
<path d="M505.143 193C559.066 193 608.204 200.571 644.543 213.019C662.696 219.236 677.887 226.75 688.901 235.324C699.279 243.404 706.442 252.83 708.215 263.407C708.465 263.793 708.669 264.214 708.814 264.666L708.878 264.879L755.739 434.379C756.015 435.375 755.982 436.368 755.71 437.271C755.901 438.669 756 440.08 756 441.5C756 454.733 747.703 466.486 734.704 476.418C721.63 486.407 703.026 495.188 680.486 502.473C635.35 517.06 573.306 526 505 526C436.694 526 374.651 517.059 329.515 502.473C306.974 495.188 288.37 486.407 275.296 476.418C262.297 466.486 254 454.733 254 441.5C254 435.479 255.738 429.71 258.872 424.293C259.99 422.361 260.814 420.627 261.256 418.919L301.071 265.089L301.134 264.865C301.347 264.163 301.695 263.529 302.144 262.985C304.043 252.534 311.205 243.217 321.519 235.221C332.551 226.667 347.743 219.172 365.889 212.969C402.213 200.551 451.291 193 505.143 193ZM506.5 226C454.309 226 412 239.431 412 256C412 272.569 454.309 286 506.5 286C558.691 286 601 272.569 601 256C601 239.431 558.691 226 506.5 226Z" fill="url(#paint6_linear_7_2)"/>
<path d="M505.143 193C559.066 193 608.204 200.571 644.543 213.019C662.696 219.236 677.887 226.75 688.901 235.324C699.279 243.404 706.442 252.83 708.215 263.407C708.465 263.793 708.669 264.214 708.814 264.666L708.878 264.879L755.739 434.379C756.015 435.375 755.982 436.368 755.71 437.271C755.901 438.669 756 440.08 756 441.5C756 454.733 747.703 466.486 734.704 476.418C721.63 486.407 703.026 495.188 680.486 502.473C635.35 517.06 573.306 526 505 526C436.694 526 374.651 517.059 329.515 502.473C306.974 495.188 288.37 486.407 275.296 476.418C262.297 466.486 254 454.733 254 441.5C254 435.479 255.738 429.71 258.872 424.293C259.99 422.361 260.814 420.627 261.256 418.919L301.071 265.089L301.134 264.865C301.347 264.163 301.695 263.529 302.144 262.985C304.043 252.534 311.205 243.217 321.519 235.221C332.551 226.667 347.743 219.172 365.889 212.969C402.213 200.551 451.291 193 505.143 193ZM506.5 226C454.309 226 412 239.431 412 256C412 272.569 454.309 286 506.5 286C558.691 286 601 272.569 601 256C601 239.431 558.691 226 506.5 226Z" fill="url(#paint7_linear_7_2)" fill-opacity="0.2"/>
<path d="M505.143 193V183V183V193ZM644.543 213.019L647.783 203.558V203.558L644.543 213.019ZM688.901 235.324L695.044 227.433L695.044 227.433L688.901 235.324ZM708.215 263.407L698.352 265.061L698.696 267.112L699.83 268.856L708.215 263.407ZM708.814 264.666L718.398 261.809L718.367 261.705L718.334 261.602L708.814 264.666ZM708.878 264.879L718.516 262.214L718.49 262.118L718.461 262.022L708.878 264.879ZM755.739 434.379L765.378 431.714L765.378 431.714L755.739 434.379ZM755.71 437.271L746.135 434.388L745.508 436.468L745.802 438.621L755.71 437.271ZM734.704 476.418L740.775 484.364L740.775 484.364L734.704 476.418ZM680.486 502.473L683.561 511.988H683.561L680.486 502.473ZM505 526V536V536V526ZM329.515 502.473L326.44 511.988H326.44L329.515 502.473ZM275.296 476.418L269.225 484.364L269.225 484.364L275.296 476.418ZM258.872 424.293L267.527 429.301L267.527 429.301L258.872 424.293ZM261.256 418.919L270.937 421.425L270.937 421.425L261.256 418.919ZM301.071 265.089L291.44 262.397L291.414 262.49L291.39 262.583L301.071 265.089ZM301.134 264.865L291.567 261.953L291.534 262.063L291.503 262.174L301.134 264.865ZM302.144 262.985L309.857 269.35L311.516 267.339L311.982 264.773L302.144 262.985ZM321.519 235.221L315.391 227.318L315.391 227.318L321.519 235.221ZM365.889 212.969L362.654 203.506L362.654 203.506L365.889 212.969ZM505.143 193V203C558.246 203 606.243 210.47 641.302 222.479L644.543 213.019L647.783 203.558C610.164 190.672 559.887 183 505.143 183V193ZM644.543 213.019L641.302 222.479C658.848 228.489 672.922 235.558 682.758 243.215L688.901 235.324L695.044 227.433C682.852 217.942 666.543 209.984 647.783 203.558L644.543 213.019ZM688.901 235.324L682.758 243.215C692.112 250.497 697.158 257.933 698.352 265.061L708.215 263.407L718.077 261.754C715.726 247.727 706.447 236.31 695.044 227.433L688.901 235.324ZM708.215 263.407L699.83 268.856C699.614 268.524 699.43 268.147 699.295 267.73L708.814 264.666L718.334 261.602C717.909 260.282 717.316 259.061 716.6 257.958L708.215 263.407ZM708.814 264.666L699.231 267.523L699.295 267.736L708.878 264.879L718.461 262.022L718.398 261.809L708.814 264.666ZM708.878 264.879L699.24 267.544L746.101 437.044L755.739 434.379L765.378 431.714L718.516 262.214L708.878 264.879ZM755.739 434.379L746.101 437.044C745.856 436.16 745.881 435.229 746.135 434.388L755.71 437.271L765.285 440.154C766.082 437.508 766.173 434.591 765.378 431.714L755.739 434.379ZM755.71 437.271L745.802 438.621C745.933 439.588 746 440.547 746 441.5H756H766C766 439.612 765.868 437.75 765.618 435.92L755.71 437.271ZM756 441.5H746C746 450.213 740.539 459.375 728.633 468.472L734.704 476.418L740.775 484.364C754.867 473.597 766 459.253 766 441.5H756ZM734.704 476.418L728.633 468.472C716.81 477.505 699.388 485.855 677.411 492.957L680.486 502.473L683.561 511.988C706.665 504.522 726.45 495.309 740.775 484.364L734.704 476.418ZM680.486 502.473L677.411 492.957C633.513 507.144 572.556 516 505 516V526V536C574.056 536 637.186 526.975 683.561 511.988L680.486 502.473ZM505 526V516C437.444 516 376.488 507.144 332.59 492.957L329.515 502.473L326.44 511.988C372.815 526.975 435.944 536 505 536V526ZM329.515 502.473L332.59 492.957C310.613 485.855 293.19 477.505 281.367 468.472L275.296 476.418L269.225 484.364C283.55 495.309 303.336 504.522 326.44 511.988L329.515 502.473ZM275.296 476.418L281.367 468.472C269.461 459.375 264 450.213 264 441.5H254H244C244 459.253 255.133 473.597 269.225 484.364L275.296 476.418ZM254 441.5H264C264 437.475 265.147 433.416 267.527 429.301L258.872 424.293L250.217 419.285C246.329 426.003 244 433.482 244 441.5H254ZM258.872 424.293L267.527 429.301C268.833 427.045 270.165 424.406 270.937 421.425L261.256 418.919L251.575 416.413C251.463 416.847 251.147 417.677 250.217 419.285L258.872 424.293ZM261.256 418.919L270.937 421.425L310.752 267.595L301.071 265.089L291.39 262.583L251.575 416.413L261.256 418.919ZM301.071 265.089L310.702 267.78L310.765 267.557L301.134 264.865L291.503 262.174L291.44 262.397L301.071 265.089ZM301.134 264.865L310.7 267.778C310.521 268.368 310.227 268.901 309.857 269.35L302.144 262.985L294.43 256.621C293.163 258.157 292.174 259.959 291.567 261.953L301.134 264.865ZM302.144 262.985L311.982 264.773C313.267 257.705 318.345 250.335 327.646 243.124L321.519 235.221L315.391 227.318C304.066 236.099 294.819 247.363 292.305 261.197L302.144 262.985ZM321.519 235.221L327.646 243.124C337.504 235.48 351.584 228.427 369.123 222.431L365.889 212.969L362.654 203.506C343.902 209.917 327.597 217.854 315.391 227.318L321.519 235.221ZM365.889 212.969L369.123 222.431C404.17 210.45 452.111 203 505.143 203V193V183C450.471 183 400.255 190.652 362.654 203.506L365.889 212.969ZM506.5 226V216C479.669 216 454.975 219.439 436.653 225.256C427.549 228.146 419.455 231.797 413.423 236.325C407.565 240.722 402 247.266 402 256H412H422C422 256.45 421.724 255.102 425.429 252.32C428.961 249.67 434.707 246.857 442.704 244.318C458.584 239.277 481.141 236 506.5 236V226ZM412 256H402C402 264.734 407.565 271.278 413.423 275.675C419.455 280.203 427.549 283.854 436.653 286.744C454.975 292.561 479.669 296 506.5 296V286V276C481.141 276 458.584 272.723 442.704 267.682C434.707 265.143 428.961 262.33 425.429 259.68C421.724 256.898 422 255.55 422 256H412ZM506.5 286V296C533.331 296 558.025 292.561 576.347 286.744C585.451 283.854 593.545 280.203 599.577 275.675C605.435 271.278 611 264.734 611 256H601H591C591 255.55 591.276 256.898 587.571 259.68C584.039 262.33 578.293 265.143 570.296 267.682C554.416 272.723 531.859 276 506.5 276V286ZM601 256H611C611 247.266 605.435 240.722 599.577 236.325C593.545 231.797 585.451 228.146 576.347 225.256C558.025 219.439 533.331 216 506.5 216V226V236C531.859 236 554.416 239.277 570.296 244.318C578.293 246.857 584.039 249.67 587.571 252.32C591.276 255.102 591 256.45 591 256H601Z" fill="#464F5C" mask="url(#path-5-inside-1_7_2)"/>
</g>
<path d="M505.5 198C559.918 198 608.974 205.508 644.251 217.504C661.914 223.51 675.849 230.551 685.268 238.123C694.732 245.732 699 253.326 699 260.5C699 267.674 694.732 275.268 685.268 282.877C675.849 290.449 661.914 297.49 644.251 303.496C608.974 315.492 559.918 323 505.5 323C451.082 323 402.026 315.492 366.749 303.496C349.086 297.49 335.151 290.449 325.732 282.877C316.268 275.268 312 267.674 312 260.5C312 253.326 316.268 245.732 325.732 238.123C335.151 230.551 349.086 223.51 366.749 217.504C402.026 205.508 451.082 198 505.5 198Z" stroke="#464F5C" stroke-width="10"/>
<g filter="url(#filter3_i_7_2)">
<ellipse cx="507" cy="257" rx="95" ry="31" fill="url(#paint8_radial_7_2)" fill-opacity="0.55"/>
</g>
<defs>
<filter id="filter0_d_7_2" x="69.8113" y="233.429" width="883.404" height="704.87" filterUnits="userSpaceOnUse" color-interpolation-filters="sRGB">
<feFlood flood-opacity="0" result="BackgroundImageFix"/>
<feColorMatrix in="SourceAlpha" type="matrix" values="0 0 0 0 0 0 0 0 0 0 0 0 0 0 0 0 0 0 127 0" result="hardAlpha"/>
<feOffset dy="20"/>
<feGaussianBlur stdDeviation="20"/>
<feComposite in2="hardAlpha" operator="out"/>
<feColorMatrix type="matrix" values="0 0 0 0 0 0 0 0 0 0 0 0 0 0 0 0 0 0 0.25 0"/>
<feBlend mode="normal" in2="BackgroundImageFix" result="effect1_dropShadow_7_2"/>
<feBlend mode="normal" in="SourceGraphic" in2="effect1_dropShadow_7_2" result="shape"/>
</filter>
<filter id="filter1_d_7_2" x="182" y="193" width="644" height="592" filterUnits="userSpaceOnUse" color-interpolation-filters="sRGB">
<feFlood flood-opacity="0" result="BackgroundImageFix"/>
<feColorMatrix in="SourceAlpha" type="matrix" values="0 0 0 0 0 0 0 0 0 0 0 0 0 0 0 0 0 0 127 0" result="hardAlpha"/>
<feOffset dy="40"/>
<feGaussianBlur stdDeviation="20"/>
<feComposite in2="hardAlpha" operator="out"/>
<feColorMatrix type="matrix" values="0 0 0 0 0 0 0 0 0 0 0 0 0 0 0 0 0 0 0.19 0"/>
<feBlend mode="normal" in2="BackgroundImageFix" result="effect1_dropShadow_7_2"/>
<feBlend mode="normal" in="SourceGraphic" in2="effect1_dropShadow_7_2" result="shape"/>
</filter>
<filter id="filter2_d_7_2" x="214" y="157" width="582" height="413" filterUnits="userSpaceOnUse" color-interpolation-filters="sRGB">
<feFlood flood-opacity="0" result="BackgroundImageFix"/>
<feColorMatrix in="SourceAlpha" type="matrix" values="0 0 0 0 0 0 0 0 0 0 0 0 0 0 0 0 0 0 127 0" result="hardAlpha"/>
<feOffset dy="4"/>
<feGaussianBlur stdDeviation="20"/>
<feComposite in2="hardAlpha" operator="out"/>
<feColorMatrix type="matrix" values="0 0 0 0 0 0 0 0 0 0 0 0 0 0 0 0 0 0 0.25 0"/>
<feBlend mode="normal" in2="BackgroundImageFix" result="effect1_dropShadow_7_2"/>
<feBlend mode="normal" in="SourceGraphic" in2="effect1_dropShadow_7_2" result="shape"/>
</filter>
<filter id="filter3_i_7_2" x="412" y="226" width="190" height="66" filterUnits="userSpaceOnUse" color-interpolation-filters="sRGB">
<feFlood flood-opacity="0" result="BackgroundImageFix"/>
<feBlend mode="normal" in="SourceGraphic" in2="BackgroundImageFix" result="shape"/>
<feColorMatrix in="SourceAlpha" type="matrix" values="0 0 0 0 0 0 0 0 0 0 0 0 0 0 0 0 0 0 127 0" result="hardAlpha"/>
<feOffset dy="4"/>
<feGaussianBlur stdDeviation="2"/>
<feComposite in2="hardAlpha" operator="arithmetic" k2="-1" k3="1"/>
<feColorMatrix type="matrix" values="0 0 0 0 0 0 0 0 0 0 0 0 0 0 0 0 0 0 0.25 0"/>
<feBlend mode="normal" in2="shape" result="effect1_innerShadow_7_2"/>
</filter>
<linearGradient id="paint0_linear_7_2" x1="512" y1="0" x2="512" y2="1024" gradientUnits="userSpaceOnUse">
<stop stop-color="#DEAF80"/>
<stop offset="1" stop-color="#9B6632"/>
</linearGradient>
<linearGradient id="paint1_linear_7_2" x1="243.829" y1="422.502" x2="800.696" y2="687.778" gradientUnits="userSpaceOnUse">
<stop stop-color="#E0FF99"/>
<stop offset="1" stop-color="#6B9900"/>
</linearGradient>
<linearGradient id="paint2_linear_7_2" x1="212" y1="351.5" x2="896" y2="762" gradientUnits="userSpaceOnUse">
<stop stop-color="white"/>
<stop offset="0.326923" stop-color="#F0F0F0"/>
<stop offset="1" stop-color="#CACACA"/>
</linearGradient>
<linearGradient id="paint3_linear_7_2" x1="504" y1="198" x2="504" y2="700" gradientUnits="userSpaceOnUse">
<stop stop-color="white"/>
<stop offset="1" stop-color="white" stop-opacity="0"/>
</linearGradient>
<linearGradient id="paint4_linear_7_2" x1="781" y1="536.5" x2="227" y2="536.5" gradientUnits="userSpaceOnUse">
<stop stop-color="white" stop-opacity="0"/>
<stop offset="0.477496" stop-color="white"/>
<stop offset="1" stop-color="white" stop-opacity="0"/>
</linearGradient>
<linearGradient id="paint5_linear_7_2" x1="335" y1="257" x2="681" y2="250" gradientUnits="userSpaceOnUse">
<stop stop-color="#B3D0FB"/>
<stop offset="0.5" stop-color="#B3D0FB"/>
<stop offset="1" stop-color="#B3D0FB"/>
</linearGradient>
<linearGradient id="paint6_linear_7_2" x1="505" y1="193" x2="505" y2="526" gradientUnits="userSpaceOnUse">
<stop stop-color="#202C3E"/>
<stop offset="1" stop-color="#353A42"/>
</linearGradient>
<linearGradient id="paint7_linear_7_2" x1="730" y1="368" x2="281" y2="368" gradientUnits="userSpaceOnUse">
<stop stop-color="white" stop-opacity="0"/>
<stop offset="0.461834" stop-color="white"/>
<stop offset="1" stop-color="white" stop-opacity="0"/>
</linearGradient>
<radialGradient id="paint8_radial_7_2" cx="0" cy="0" r="1" gradientUnits="userSpaceOnUse" gradientTransform="translate(507 257) scale(95 31)">
<stop stop-color="#B3D0FB"/>
<stop offset="0.5" stop-color="#6899E2"/>
<stop offset="1" stop-color="#3C639D"/>
</radialGradient>
</defs>
</svg>
