<svg width="1024" height="1024" viewBox="0 0 1024 1024" fill="none" xmlns="http://www.w3.org/2000/svg">
<rect width="1024" height="1024" fill="url(#paint0_linear)"/>
<g filter="url(#filter0_d)">
<rect x="232" y="152" width="560" height="720" rx="48" fill="#FAFAFA"/>
<!-- Checkbox 1 - checked -->
<rect x="302" y="232" width="64" height="64" rx="16" fill="#008888"/>
<path d="M318 264l14 14 28-28" stroke="#fff" stroke-width="8" stroke-linecap="round" stroke-linejoin="round"/>
<rect x="402" y="244" width="320" height="20" rx="10" fill="#B0D0D0"/>
<rect x="402" y="274" width="200" height="12" rx="6" fill="#D0E0E0"/>
<!-- Checkbox 2 - checked -->
<rect x="302" y="352" width="64" height="64" rx="16" fill="#008888"/>
<path d="M318 384l14 14 28-28" stroke="#fff" stroke-width="8" stroke-linecap="round" stroke-linejoin="round"/>
<rect x="402" y="364" width="280" height="20" rx="10" fill="#B0D0D0"/>
<rect x="402" y="394" width="160" height="12" rx="6" fill="#D0E0E0"/>
<!-- Checkbox 3 - unchecked -->
<rect x="302" y="472" width="64" height="64" rx="16" stroke="#AACECE" stroke-width="4" fill="none"/>
<rect x="402" y="484" width="340" height="20" rx="10" fill="#B0D0D0"/>
<rect x="402" y="514" width="240" height="12" rx="6" fill="#D0E0E0"/>
<!-- Checkbox 4 - unchecked -->
<rect x="302" y="592" width="64" height="64" rx="16" stroke="#AACECE" stroke-width="4" fill="none"/>
<rect x="402" y="604" width="260" height="20" rx="10" fill="#B0D0D0"/>
<rect x="402" y="634" width="180" height="12" rx="6" fill="#D0E0E0"/>
<!-- Checkbox 5 - unchecked -->
<rect x="302" y="712" width="64" height="64" rx="16" stroke="#AACECE" stroke-width="4" fill="none"/>
<rect x="402" y="724" width="300" height="20" rx="10" fill="#B0D0D0"/>
<rect x="402" y="754" width="220" height="12" rx="6" fill="#D0E0E0"/>
</g>
<defs>
<filter id="filter0_d" x="222" y="150" width="580" height="742" filterUnits="userSpaceOnUse" color-interpolation-filters="sRGB">
<feFlood flood-opacity="0" result="BackgroundImageFix"/>
<feColorMatrix in="SourceAlpha" type="matrix" values="0 0 0 0 0 0 0 0 0 0 0 0 0 0 0 0 0 0 127 0" result="hardAlpha"/>
<feOffset dy="8"/>
<feGaussianBlur stdDeviation="5"/>
<feComposite in2="hardAlpha" operator="out"/>
<feColorMatrix type="matrix" values="0 0 0 0 0 0 0 0 0 0 0 0 0 0 0 0 0 0 0.15 0"/>
<feBlend mode="normal" in2="BackgroundImageFix" result="effect1_dropShadow"/>
<feBlend mode="normal" in="SourceGraphic" in2="effect1_dropShadow" result="shape"/>
</filter>
<linearGradient id="paint0_linear" x1="0" y1="0" x2="1024" y2="1024" gradientUnits="userSpaceOnUse">
<stop stop-color="#4DD0D0"/>
<stop offset="1" stop-color="#005858"/>
</linearGradient>
</defs>
</svg>
