<svg xmlns="http://www.w3.org/2000/svg" width="128" height="128" fill="none" viewBox="0 0 128 128"><g filter="url(#filter0_ii_812_2)"><path fill="url(#paint0_linear_812_2)" d="M92 12H36c-13.255 0-24 10.745-24 24v56c0 13.255 10.745 24 24 24h56c13.255 0 24-10.745 24-24V36c0-13.255-10.745-24-24-24"/></g><g filter="url(#filter1_d_812_2)"><path fill="#fafafa" fill-rule="evenodd" d="M70.25 47.609v29.767c0 5.592-4.533 10.125-10.125 10.125S50 82.968 50 77.376V76.21c0-5.592 4.533-10.125 10.125-10.125 1.589 0 3.092.366 4.43 1.018V44.17c0-.694.248-1.33.66-1.823A3 3 0 0 1 67.719 41c1.814 0 4.467.52 6.753 2.165 2.44 1.757 4.247 4.657 4.247 8.835a3 3 0 0 1-6 0c0-2.222-.858-3.322-1.753-3.965a5 5 0 0 0-.715-.426" clip-rule="evenodd"/></g><defs><filter id="filter0_ii_812_2" width="104" height="105" x="12" y="12" color-interpolation-filters="sRGB" filterUnits="userSpaceOnUse"><feFlood flood-opacity="0" result="BackgroundImageFix"/><feBlend in="SourceGraphic" in2="BackgroundImageFix" result="shape"/><feColorMatrix in="SourceAlpha" result="hardAlpha" values="0 0 0 0 0 0 0 0 0 0 0 0 0 0 0 0 0 0 127 0"/><feOffset dy="-4"/><feComposite in2="hardAlpha" k2="-1" k3="1" operator="arithmetic"/><feColorMatrix values="0 0 0 0 0 0 0 0 0 0 0 0 0 0 0 0 0 0 0.25 0"/><feBlend in2="shape" result="effect1_innerShadow_812_2"/><feColorMatrix in="SourceAlpha" result="hardAlpha" values="0 0 0 0 0 0 0 0 0 0 0 0 0 0 0 0 0 0 127 0"/><feMorphology in="SourceAlpha" radius="1" result="effect2_innerShadow_812_2"/><feOffset dy="2"/><feComposite in2="hardAlpha" k2="-1" k3="1" operator="arithmetic"/><feColorMatrix values="0 0 0 0 1 0 0 0 0 1 0 0 0 0 1 0 0 0 0.25 0"/><feBlend in2="effect1_innerShadow_812_2" result="effect2_innerShadow_812_2"/></filter><filter id="filter1_d_812_2" width="34.719" height="52.501" x="49" y="40" color-interpolation-filters="sRGB" filterUnits="userSpaceOnUse"><feFlood flood-opacity="0" result="BackgroundImageFix"/><feColorMatrix in="SourceAlpha" result="hardAlpha" values="0 0 0 0 0 0 0 0 0 0 0 0 0 0 0 0 0 0 127 0"/><feOffset dx="2" dy="2"/><feGaussianBlur stdDeviation="1.5"/><feComposite in2="hardAlpha" operator="out"/><feColorMatrix values="0 0 0 0 0 0 0 0 0 0 0 0 0 0 0 0 0 0 0.14 0"/><feBlend in2="BackgroundImageFix" result="effect1_dropShadow_812_2"/><feBlend in="SourceGraphic" in2="effect1_dropShadow_812_2" result="shape"/></filter><linearGradient id="paint0_linear_812_2" x1="34.75" x2="96.5" y1="12" y2="116" gradientUnits="userSpaceOnUse"><stop stop-color="#f7812b"/><stop offset="1" stop-color="#ee4242"/></linearGradient></defs></svg>