<svg width="1024" height="1024" viewBox="0 0 1024 1024" fill="none" xmlns="http://www.w3.org/2000/svg">
<rect width="1024" height="1024" fill="url(#paint0_linear_18_2)"/>
<path d="M253.982 56L341 1.69873e-06H170L253.982 56Z" fill="#D9D9D9"/>
<path d="M425.473 56L513 1.69873e-06H341L425.473 56Z" fill="#D9D9D9"/>
<path d="M596.491 56L683 1.69873e-06H513L596.491 56Z" fill="#D9D9D9"/>
<path d="M766.982 56L854 1.69873e-06H683L766.982 56Z" fill="#D9D9D9"/>
<rect x="64" y="191" width="887" height="62" rx="31" fill="black" fill-opacity="0.18"/>
<rect x="315" y="90" width="394" height="63" rx="31.5" fill="#6B38FB" fill-opacity="0.38"/>
<rect x="72" y="591" width="487" height="294" rx="26" fill="#6B38FB" fill-opacity="0.38"/>
<rect x="315" y="291" width="198" height="62" rx="31" fill="black" fill-opacity="0.18"/>
<rect x="315" y="391" width="244" height="62" rx="31" fill="black" fill-opacity="0.18"/>
<rect x="315" y="491" width="154" height="62" rx="31" fill="black" fill-opacity="0.18"/>
<path d="M176.56 299.71H265L259.336 371.852H235.81L231.018 326.506L175.253 321.559L176.56 299.71ZM139.528 523.968L176.995 530.151L168.718 545.404C165.813 545.679 161.312 546.229 155.212 547.053C149.403 547.878 143.449 548.565 137.35 549.114C131.251 549.939 125.877 550.626 121.23 551.176C116.874 551.725 114.405 552 113.824 552C112.953 552 111.355 551.038 109.032 549.114C106.708 547.191 104.385 545.129 102.061 542.931C100.028 540.732 99.0113 539.221 99.0113 538.396V324.444L72 318.261V302.184C75.4853 301.634 79.9872 301.084 85.5056 300.535C91.0241 299.71 96.6877 299.023 102.497 298.473C108.305 297.649 113.388 297.099 117.745 296.824C122.102 296.275 124.716 296 125.587 296C126.458 296 128.056 296.962 130.379 298.886C132.703 300.809 134.736 303.008 136.479 305.481C138.512 307.68 139.528 309.192 139.528 310.016V523.968ZM165.668 418.435L232.761 415.137L229.275 445.643L165.668 440.283V418.435ZM175.253 299.71H186.144V506.654C186.144 508.303 185.418 511.326 183.966 515.723C182.514 519.845 180.19 524.655 176.995 530.151H163.49V335.163C163.49 332.14 164.652 327.33 166.975 320.734C169.589 314.138 172.348 307.13 175.253 299.71Z" fill="black"/>
<rect x="592" y="666" width="262" height="19" rx="9.5" fill="black" fill-opacity="0.38"/>
<rect x="592" y="723" width="359" height="62" rx="31" fill="black" fill-opacity="0.18"/>
<rect x="592" y="823" width="289" height="62" rx="31" fill="black" fill-opacity="0.18"/>
<rect x="592" y="291" width="359" height="338" rx="26" fill="#6B38FB" fill-opacity="0.38"/>
<defs>
<linearGradient id="paint0_linear_18_2" x1="512" y1="0" x2="512" y2="1024" gradientUnits="userSpaceOnUse">
<stop offset="0.807692" stop-color="#F0F0F0"/>
<stop offset="1" stop-color="#B3B3B3"/>
</linearGradient>
</defs>
</svg>
