<svg width="1024" height="1024" viewBox="0 0 1024 1024" fill="none" xmlns="http://www.w3.org/2000/svg">
<rect width="1024" height="1024" fill="url(#paint0_linear)"/>
<g filter="url(#filter0_d)">
<path d="M512 152C637.385 152 742.868 237.539 774.124 352.804C775.427 357.61 771.878 362 766.91 362H257.09C252.122 362 248.573 357.61 249.876 352.804C281.132 237.539 386.615 152 512 152Z" fill="#FAFAFA"/>
<ellipse cx="512" cy="362" rx="310" ry="80" fill="#FAFAFA"/>
<path d="M202 362C202 362 322 442 512 442C702 442 822 362 822 362" stroke="white" stroke-opacity="0.5" stroke-width="6"/>
<!-- Color dots on the palette -->
<circle cx="380" cy="252" r="48" fill="#F44336"/>
<circle cx="512" cy="212" r="48" fill="#4CAF50"/>
<circle cx="644" cy="252" r="48" fill="#2196F3"/>
<circle cx="432" cy="312" r="36" fill="#FF9800"/>
<circle cx="592" cy="312" r="36" fill="#9C27B0"/>
<!-- Swatch cards below -->
<rect x="172" y="522" width="160" height="200" rx="20" fill="#F44336"/>
<rect x="362" y="522" width="160" height="200" rx="20" fill="#4CAF50"/>
<rect x="552" y="522" width="160" height="200" rx="20" fill="#2196F3"/>
<rect x="172" y="752" width="160" height="100" rx="20" fill="#FF9800"/>
<rect x="362" y="752" width="160" height="100" rx="20" fill="#9C27B0"/>
<rect x="552" y="752" width="160" height="100" rx="20" fill="#009688"/>
<rect x="742" y="522" width="110" height="330" rx="20" fill="url(#paint1_linear)"/>
</g>
<defs>
<filter id="filter0_d" x="162" y="150" width="700" height="720" filterUnits="userSpaceOnUse" color-interpolation-filters="sRGB">
<feFlood flood-opacity="0" result="BackgroundImageFix"/>
<feColorMatrix in="SourceAlpha" type="matrix" values="0 0 0 0 0 0 0 0 0 0 0 0 0 0 0 0 0 0 127 0" result="hardAlpha"/>
<feOffset dy="8"/>
<feGaussianBlur stdDeviation="5"/>
<feComposite in2="hardAlpha" operator="out"/>
<feColorMatrix type="matrix" values="0 0 0 0 0 0 0 0 0 0 0 0 0 0 0 0 0 0 0.15 0"/>
<feBlend mode="normal" in2="BackgroundImageFix" result="effect1_dropShadow"/>
<feBlend mode="normal" in="SourceGraphic" in2="effect1_dropShadow" result="shape"/>
</filter>
<linearGradient id="paint0_linear" x1="0" y1="0" x2="1024" y2="1024" gradientUnits="userSpaceOnUse">
<stop stop-color="#9B84C0"/>
<stop offset="1" stop-color="#3D2866"/>
</linearGradient>
<linearGradient id="paint1_linear" x1="797" y1="522" x2="797" y2="852" gradientUnits="userSpaceOnUse">
<stop stop-color="#65558F"/>
<stop offset="1" stop-color="#3D2866"/>
</linearGradient>
</defs>
</svg>
