<svg width="1024" height="1024" viewBox="0 0 1024 1024" fill="none" xmlns="http://www.w3.org/2000/svg">
<g clip-path="url(#clip0_4_22)">
<path d="M1024 0H0V1024H1024V0Z" fill="#BDBCC3"/>
<path d="M794 50H230C130.589 50 50 130.589 50 230V794C50 893.411 130.589 974 230 974H794C893.411 974 974 893.411 974 794V230C974 130.589 893.411 50 794 50Z" fill="#E4E3E8"/>
<path d="M268 278H156C147.163 278 140 285.163 140 294V358C140 366.837 147.163 374 156 374H268C276.837 374 284 366.837 284 358V294C284 285.163 276.837 278 268 278Z" fill="#BDBCC3"/>
<path d="M268 402H156C147.163 402 140 409.163 140 418V482C140 490.837 147.163 498 156 498H268C276.837 498 284 490.837 284 482V418C284 409.163 276.837 402 268 402Z" fill="#BDBCC3"/>
<path d="M268 526H156C147.163 526 140 533.163 140 542V606C140 614.837 147.163 622 156 622H268C276.837 622 284 614.837 284 606V542C284 533.163 276.837 526 268 526Z" fill="#BDBCC3"/>
<path d="M268 650H156C147.163 650 140 657.163 140 666V730C140 738.837 147.163 746 156 746H268C276.837 746 284 738.837 284 730V666C284 657.163 276.837 650 268 650Z" fill="#BDBCC3"/>
<path d="M852 278H376C358.327 278 344 292.327 344 310V606C344 623.673 358.327 638 376 638H852C869.673 638 884 623.673 884 606V310C884 292.327 869.673 278 852 278Z" fill="white"/>
<path d="M872 678H356C349.373 678 344 683.373 344 690C344 696.627 349.373 702 356 702H872C878.627 702 884 696.627 884 690C884 683.373 878.627 678 872 678Z" fill="#BDBCC3"/>
<path d="M712 722H356C349.373 722 344 727.373 344 734C344 740.627 349.373 746 356 746H712C718.627 746 724 740.627 724 734C724 727.373 718.627 722 712 722Z" fill="#BDBCC3"/>
<path d="M671.075 458L566 519.294V396.705L671.075 458Z" fill="#7C6EC0" stroke="#1E1452" stroke-width="10"/>
</g>
<defs>
<clipPath id="clip0_4_22">
<rect width="1024" height="1024" fill="white"/>
</clipPath>
</defs>
</svg>
