<svg width="1024" height="1024" viewBox="0 0 1024 1024" fill="none" xmlns="http://www.w3.org/2000/svg">
<g clip-path="url(#clip0_12_2)">
<rect width="1024" height="1024" fill="url(#paint0_linear_12_2)"/>
<path d="M212.5 412L271.125 230H351.5L407.5 412H334.75L311.625 321.875C310.708 318.458 309.958 315.5 309.375 313C308.875 310.417 308.583 308.917 308.5 308.5H308.25C308.167 308.917 307.833 310.375 307.25 312.875C306.667 315.375 306 318.333 305.25 321.75L284.75 412H212.5ZM255.375 392.25L263.625 345.75H354.125L363.375 392.25H255.375Z" fill="url(#paint1_linear_12_2)"/>
<rect x="437" y="357" width="377" height="54" rx="27" fill="black" fill-opacity="0.18"/>
<rect x="215" y="496" width="502" height="54" rx="27" fill="black" fill-opacity="0.18"/>
<rect x="215" y="635" width="599" height="54" rx="27" fill="black" fill-opacity="0.18"/>
<rect x="215" y="774" width="502" height="54" rx="27" fill="black" fill-opacity="0.18"/>
</g>
<defs>
<linearGradient id="paint0_linear_12_2" x1="0" y1="0" x2="1024" y2="1024" gradientUnits="userSpaceOnUse">
<stop stop-color="#BEECDD"/>
<stop offset="0.5" stop-color="#D2E7DF"/>
<stop offset="1" stop-color="#C6EAF2"/>
</linearGradient>
<linearGradient id="paint1_linear_12_2" x1="215" y1="196" x2="405" y2="452" gradientUnits="userSpaceOnUse">
<stop stop-color="#256A5A"/>
<stop offset="1" stop-color="#255A6A"/>
</linearGradient>
<clipPath id="clip0_12_2">
<rect width="1024" height="1024" fill="white"/>
</clipPath>
</defs>
</svg>
