<svg width="1024" height="1024" viewBox="0 0 1024 1024" fill="none" xmlns="http://www.w3.org/2000/svg">
<g clip-path="url(#clip0_6_2)">
<path d="M1024 0H0V1024H1024V0Z" fill="#BCC3C3"/>
<path d="M794 50H230C130.589 50 50 130.589 50 230V794C50 893.411 130.589 974 230 974H794C893.411 974 974 893.411 974 794V230C974 130.589 893.411 50 794 50Z" fill="#E3E8E8"/>
<path d="M611.978 424H255.978C249.351 424 243.978 429.373 243.978 436C243.978 442.627 249.351 448 255.978 448H611.978C618.606 448 623.978 442.627 623.978 436C623.978 429.373 618.606 424 611.978 424Z" fill="#145252"/>
<path d="M771.978 480H255.978C249.351 480 243.978 485.373 243.978 492C243.978 498.627 249.351 504 255.978 504H771.978C778.606 504 783.978 498.627 783.978 492C783.978 485.373 778.606 480 771.978 480Z" fill="#145252"/>
<path d="M611.978 536H255.978C249.351 536 243.978 541.373 243.978 548C243.978 554.627 249.351 560 255.978 560H611.978C618.606 560 623.978 554.627 623.978 548C623.978 541.373 618.606 536 611.978 536Z" fill="#145252"/>
<path d="M771.978 592H255.978C249.351 592 243.978 597.373 243.978 604C243.978 610.627 249.351 616 255.978 616H771.978C778.606 616 783.978 610.627 783.978 604C783.978 597.373 778.606 592 771.978 592Z" fill="#145252"/>
<path d="M611.978 648H255.978C249.351 648 243.978 653.373 243.978 660C243.978 666.627 249.351 672 255.978 672H611.978C618.606 672 623.978 666.627 623.978 660C623.978 653.373 618.606 648 611.978 648Z" fill="#145252"/>
<path d="M771.978 704H255.978C249.351 704 243.978 709.373 243.978 716C243.978 722.627 249.351 728 255.978 728H771.978C778.606 728 783.978 722.627 783.978 716C783.978 709.373 778.606 704 771.978 704Z" fill="#145252"/>
<path d="M611.978 760H255.978C249.351 760 243.978 765.373 243.978 772C243.978 778.627 249.351 784 255.978 784H611.978C618.606 784 623.978 778.627 623.978 772C623.978 765.373 618.606 760 611.978 760Z" fill="#145252"/>
<path d="M778.09 250H524.867C521.615 250 518.978 255.373 518.978 262C518.978 268.627 521.615 274 524.867 274H778.09C781.342 274 783.978 268.627 783.978 262C783.978 255.373 781.342 250 778.09 250Z" fill="#6D7777"/>
<path d="M699.571 306H524.867C521.615 306 518.978 311.373 518.978 318C518.978 324.627 521.615 330 524.867 330H699.571C702.823 330 705.46 324.627 705.46 318C705.46 311.373 702.823 306 699.571 306Z" fill="#6D7777"/>
<path d="M778.09 362H524.867C521.615 362 518.978 367.373 518.978 374C518.978 380.627 521.615 386 524.867 386H778.09C781.342 386 783.978 380.627 783.978 374C783.978 367.373 781.342 362 778.09 362Z" fill="#6D7777"/>
<path d="M350.179 256L350.749 260.351L363.789 359.898C363.871 359.154 363.982 358.401 364.121 357.64L364.124 357.622L364.127 357.604C365.842 348.561 371.698 341.625 380.633 336.68C381.684 336.098 382.768 335.553 383.883 335.044L379.899 335.026L374.231 335.001L374.964 329.381L375.294 326.849L375.309 326.722L375.333 326.595C377.094 316.961 383.964 309.962 394.214 305.236L395.183 304.796C405.282 300.322 418.064 298.232 433.26 298.232C449.126 298.232 461.592 300.444 469.635 305.75L469.636 305.749C473.889 308.536 476.962 312.297 478.618 316.987C480.145 321.314 480.364 326.132 479.574 331.263L479.401 332.3L473.636 364.369C473.193 367.068 473.005 369.528 473.048 371.763C473.141 373.893 473.516 375.608 474.079 376.982L474.605 378.27L474.392 379.644L474.227 380.705L473.57 384.938H427.023L425.677 382.049C425.202 381.027 424.821 379.96 424.527 378.856C422.641 379.929 420.574 380.945 418.351 381.91L418.333 381.919L418.314 381.926C411.779 384.701 404.183 386 395.668 386C385.521 386 376.992 383.984 370.985 379.07C368.41 376.964 366.549 374.492 365.34 371.735L366.33 379.289L367.07 384.938H315.998L315.511 380.479L313.666 363.536H284.899L277.105 381.893L275.811 384.938H231.938L235.548 377.705L294.904 258.768L296.285 256H350.179ZM423.12 352.426C419.338 352.426 416.719 352.992 414.982 353.811C414.189 354.199 413.498 354.855 413.238 356.823L413.234 356.849C413.037 358.285 413.098 359.178 413.206 359.67C413.24 359.828 413.276 359.923 413.299 359.976C413.86 360.414 414.621 360.725 415.865 360.725C417.704 360.725 419.926 360.031 422.611 358.035C425.234 356.086 426.066 354.422 426.253 353.153L426.26 353.106L426.266 353.061L426.372 352.426H423.12ZM297.747 333.277H310.37L307.793 309.615L297.747 333.277ZM427.737 324.244C425.125 324.244 423.529 324.779 422.556 325.418C421.995 325.811 421.364 326.554 421.073 328.385L420.968 329.438H430.326L430.359 329.167L430.369 329.09L430.381 329.015C430.855 325.962 430.313 324.947 430.202 324.794L430.141 324.708C430.132 324.695 430.125 324.685 430.103 324.669C430.079 324.65 430.006 324.599 429.852 324.537C429.523 324.405 428.869 324.244 427.737 324.244Z" fill="#6EC0C0" stroke="#145252" stroke-width="10"/>
<rect x="829" y="261" width="25" height="178" rx="12" fill="#29A3A3"/>
</g>
<defs>
<clipPath id="clip0_6_2">
<rect width="1024" height="1024" fill="white"/>
</clipPath>
</defs>
</svg>
