<svg width="1024" height="1024" viewBox="0 0 1024 1024" fill="none" xmlns="http://www.w3.org/2000/svg">
<rect width="1024" height="1024" fill="url(#paint0_linear_1228_2)"/>
<path d="M571.426 212C594.618 212 628.609 218.645 657.829 239.629C688.874 261.923 712 298.766 712 352.204C712 371.909 695.984 387.884 676.227 387.884C656.47 387.884 640.454 371.909 640.454 352.204C640.454 322.023 628.646 306.603 616.024 297.539C612.173 294.774 608.041 292.475 603.829 290.591V665.807C604.096 669.276 604.233 672.781 604.233 676.318C604.233 751.253 543.325 812 468.193 812H448.039C372.907 812 312 751.253 312 676.318C312 601.383 372.908 540.637 448.04 540.637H468.194C490.555 540.637 511.657 546.018 530.267 555.553V243.142C530.267 226.49 543.802 212.99 560.498 212.99H563.032C565.725 212.345 568.535 212 571.426 212Z" fill="#FAFAFA"/>
<defs>
<linearGradient id="paint0_linear_1228_2" x1="224" y1="2.26498e-06" x2="832" y2="1024" gradientUnits="userSpaceOnUse">
<stop stop-color="#FF7B00"/>
<stop offset="1" stop-color="#DB2860"/>
</linearGradient>
</defs>
</svg>
