<svg width="1024" height="1024" viewBox="0 0 1024 1024" fill="none" xmlns="http://www.w3.org/2000/svg">
<rect width="1024" height="1024" fill="url(#paint0_linear)"/>
<g filter="url(#filter0_d)">
<!-- Left: editor pane -->
<rect x="152" y="192" width="360" height="640" rx="32" fill="#FAFAFA"/>
<rect x="192" y="262" width="200" height="14" rx="7" fill="#C0C0C0"/>
<rect x="192" y="302" width="280" height="14" rx="7" fill="#C0C0C0"/>
<rect x="192" y="342" width="240" height="14" rx="7" fill="#C0C0C0"/>
<rect x="192" y="382" width="160" height="14" rx="7" fill="#C0C0C0"/>
<rect x="192" y="432" width="260" height="14" rx="7" fill="#C0C0C0"/>
<rect x="192" y="472" width="300" height="14" rx="7" fill="#C0C0C0"/>
<rect x="192" y="512" width="220" height="14" rx="7" fill="#C0C0C0"/>
<rect x="192" y="562" width="280" height="14" rx="7" fill="#C0C0C0"/>
<rect x="192" y="602" width="180" height="14" rx="7" fill="#C0C0C0"/>
<rect x="192" y="652" width="260" height="14" rx="7" fill="#C0C0C0"/>
<rect x="192" y="692" width="200" height="14" rx="7" fill="#C0C0C0"/>
<!-- Blinking cursor -->
<rect x="192" y="252" width="3" height="20" rx="1.5" fill="#5D8C6A"/>
<!-- Right: preview pane -->
<rect x="532" y="192" width="360" height="640" rx="32" fill="#F5F5F0"/>
<rect x="572" y="252" width="240" height="24" rx="4" fill="#3D5C48" fill-opacity="0.8"/>
<rect x="572" y="302" width="280" height="12" rx="6" fill="#A0A090"/>
<rect x="572" y="330" width="300" height="12" rx="6" fill="#A0A090"/>
<rect x="572" y="358" width="220" height="12" rx="6" fill="#A0A090"/>
<rect x="572" y="406" width="200" height="18" rx="4" fill="#3D5C48" fill-opacity="0.6"/>
<rect x="572" y="446" width="280" height="12" rx="6" fill="#A0A090"/>
<rect x="572" y="474" width="260" height="12" rx="6" fill="#A0A090"/>
<rect x="572" y="502" width="300" height="12" rx="6" fill="#A0A090"/>
<rect x="572" y="530" width="180" height="12" rx="6" fill="#A0A090"/>
<rect x="572" y="578" width="160" height="18" rx="4" fill="#3D5C48" fill-opacity="0.6"/>
<rect x="572" y="618" width="300" height="12" rx="6" fill="#A0A090"/>
<rect x="572" y="646" width="240" height="12" rx="6" fill="#A0A090"/>
<rect x="572" y="674" width="280" height="12" rx="6" fill="#A0A090"/>
</g>
<defs>
<filter id="filter0_d" x="142" y="190" width="760" height="662" filterUnits="userSpaceOnUse" color-interpolation-filters="sRGB">
<feFlood flood-opacity="0" result="BackgroundImageFix"/>
<feColorMatrix in="SourceAlpha" type="matrix" values="0 0 0 0 0 0 0 0 0 0 0 0 0 0 0 0 0 0 127 0" result="hardAlpha"/>
<feOffset dy="8"/>
<feGaussianBlur stdDeviation="5"/>
<feComposite in2="hardAlpha" operator="out"/>
<feColorMatrix type="matrix" values="0 0 0 0 0 0 0 0 0 0 0 0 0 0 0 0 0 0 0.15 0"/>
<feBlend mode="normal" in2="BackgroundImageFix" result="effect1_dropShadow"/>
<feBlend mode="normal" in="SourceGraphic" in2="effect1_dropShadow" result="shape"/>
</filter>
<linearGradient id="paint0_linear" x1="0" y1="0" x2="1024" y2="1024" gradientUnits="userSpaceOnUse">
<stop stop-color="#8FBC8F"/>
<stop offset="1" stop-color="#2E5E3E"/>
</linearGradient>
</defs>
</svg>
