<svg width="1024" height="1024" viewBox="0 0 1024 1024" fill="none" xmlns="http://www.w3.org/2000/svg">
<g clip-path="url(#clip0_4_2)">
<path d="M1024 0H0V1024H1024V0Z" fill="#C1C3BC"/>
<path d="M50 230C50 130.589 130.589 50 230 50H794C893.411 50 974 130.589 974 230V794C974 893.411 893.411 974 794 974H230C130.589 974 50 893.411 50 794V230Z" fill="#F6F7F3"/>
<path d="M50 230C50 130.589 130.589 50 230 50H276V974H230C130.589 974 50 893.411 50 794V230Z" fill="#E7E8E3"/>
<path d="M110 200C110 117.157 177.157 50 260 50H796.089C879.318 50 951.695 107.061 971.118 187.993L974 200H110Z" fill="#E7E8E3"/>
<mask id="path-5-outside-1_4_2" maskUnits="userSpaceOnUse" x="50" y="50" width="934" height="934" fill="black">
<rect fill="white" x="50" y="50" width="934" height="934"/>
<path d="M50 230C50 130.589 130.589 50 230 50H794C893.411 50 974 130.589 974 230V794C974 893.411 893.411 974 794 974H230C130.589 974 50 893.411 50 794V230Z"/>
</mask>
<path d="M50 50H974H50M984 794C984 898.934 898.934 984 794 984H240C135.066 984 50 898.934 50 794C50 887.888 130.589 964 230 964H794C887.888 964 964 887.888 964 794H984ZM964 794M50 974V50V974M794 50C898.934 50 984 135.066 984 240V794C984 898.934 898.934 984 794 984V964C887.888 964 964 887.888 964 794V230C964 130.589 887.888 50 794 50Z" fill="#C1C3BC" mask="url(#path-5-outside-1_4_2)"/>
<path d="M50 200H974" stroke="#C1C3BC" stroke-width="10"/>
<path d="M50 309H974" stroke="#DADBD7" stroke-width="10"/>
<path d="M50 417H974" stroke="#DADBD7" stroke-width="10"/>
<path d="M50 634H974" stroke="#DADBD7" stroke-width="10"/>
<path d="M62 850L964 850" stroke="#DADBD7" stroke-width="10"/>
<path d="M50 525H974" stroke="#DADBD7" stroke-width="10"/>
<path d="M50 742H974" stroke="#DADBD7" stroke-width="10"/>
<path d="M276 50V988" stroke="#C1C3BC" stroke-width="10"/>
<path d="M495 64V974" stroke="#DADBD7" stroke-width="10"/>
<path d="M715 64V974" stroke="#DADBD7" stroke-width="10"/>
<path d="M495 200V46" stroke="#C5C7C0" stroke-width="10"/>
<path d="M715 200V46" stroke="#C5C7C0" stroke-width="10"/>
<path d="M276 309H50" stroke="#C5C7C0" stroke-width="10"/>
<path d="M276 417H50" stroke="#C5C7C0" stroke-width="10"/>
<path d="M276 526H50" stroke="#C5C7C0" stroke-width="10"/>
<path d="M276 634H50" stroke="#C5C7C0" stroke-width="10"/>
<path d="M276 742H50" stroke="#C5C7C0" stroke-width="10"/>
<path d="M276 850H50" stroke="#C5C7C0" stroke-width="10"/>
<rect x="494" y="525" width="220" height="110" fill="#85A329" fill-opacity="0.66" stroke="#425214" stroke-width="10"/>
</g>
<defs>
<clipPath id="clip0_4_2">
<rect width="1024" height="1024" fill="white"/>
</clipPath>
</defs>
</svg>
