<svg width="1024" height="1024" viewBox="0 0 1024 1024" fill="none" xmlns="http://www.w3.org/2000/svg">
<g clip-path="url(#clip0_1_2)">
<rect width="1024" height="1024" fill="#FEF6F6"/>
<rect width="1024" height="250" fill="#F27070"/>
<rect x="-5" y="-5" width="1034" height="260" stroke="black" stroke-opacity="0.18" stroke-width="10"/>
<rect x="200" y="100" width="80" height="80" rx="40" fill="black" fill-opacity="0.2"/>
<rect x="744" y="100" width="80" height="80" rx="40" fill="black" fill-opacity="0.2"/>
<g filter="url(#filter0_d_1_2)">
<path d="M394.364 806.091C370.364 806.091 348.97 801.97 330.182 793.727C311.515 785.485 296.667 774.03 285.636 759.364C274.727 744.576 268.788 727.424 267.818 707.909H313.636C314.606 719.909 318.727 730.273 326 739C333.273 747.606 342.788 754.273 354.545 759C366.303 763.727 379.333 766.091 393.636 766.091C409.636 766.091 423.818 763.303 436.182 757.727C448.545 752.152 458.242 744.394 465.273 734.455C472.303 724.515 475.818 713 475.818 699.909C475.818 686.212 472.424 674.152 465.636 663.727C458.848 653.182 448.909 644.939 435.818 639C422.727 633.061 406.727 630.091 387.818 630.091H358V590.091H387.818C402.606 590.091 415.576 587.424 426.727 582.091C438 576.758 446.788 569.242 453.091 559.545C459.515 549.848 462.727 538.455 462.727 525.364C462.727 512.758 459.939 501.788 454.364 492.455C448.788 483.121 440.909 475.848 430.727 470.636C420.667 465.424 408.788 462.818 395.091 462.818C382.242 462.818 370.121 465.182 358.727 469.909C347.455 474.515 338.242 481.242 331.091 490.091C323.939 498.818 320.061 509.364 319.455 521.727H275.818C276.545 502.212 282.424 485.121 293.455 470.455C304.485 455.667 318.909 444.151 336.727 435.909C354.667 427.667 374.364 423.545 395.818 423.545C418.848 423.545 438.606 428.212 455.091 437.545C471.576 446.758 484.242 458.939 493.091 474.091C501.939 489.242 506.364 505.606 506.364 523.182C506.364 544.152 500.848 562.03 489.818 576.818C478.909 591.606 464.061 601.848 445.273 607.545V610.455C468.788 614.333 487.152 624.333 500.364 640.455C513.576 656.455 520.182 676.273 520.182 699.909C520.182 720.152 514.667 738.333 503.636 754.455C492.727 770.455 477.818 783.061 458.909 792.273C440 801.485 418.485 806.091 394.364 806.091ZM725.455 428.636V801H680.364V475.909H678.182L587.273 536.273V490.455L680.364 428.636H725.455Z" fill="#5D0909"/>
</g>
</g>
<defs>
<filter id="filter0_d_1_2" x="267.818" y="423.545" width="457.636" height="392.545" filterUnits="userSpaceOnUse" color-interpolation-filters="sRGB">
<feFlood flood-opacity="0" result="BackgroundImageFix"/>
<feColorMatrix in="SourceAlpha" type="matrix" values="0 0 0 0 0 0 0 0 0 0 0 0 0 0 0 0 0 0 127 0" result="hardAlpha"/>
<feOffset dy="10"/>
<feComposite in2="hardAlpha" operator="out"/>
<feColorMatrix type="matrix" values="0 0 0 0 0 0 0 0 0 0 0 0 0 0 0 0 0 0 0.25 0"/>
<feBlend mode="normal" in2="BackgroundImageFix" result="effect1_dropShadow_1_2"/>
<feBlend mode="normal" in="SourceGraphic" in2="effect1_dropShadow_1_2" result="shape"/>
</filter>
<clipPath id="clip0_1_2">
<rect width="1024" height="1024" fill="white"/>
</clipPath>
</defs>
</svg>
